<?xml version="1.0" encoding="UTF-8"?>
<!DOCTYPE svg PUBLIC "-//W3C//DTD SVG 1.1//EN" "http://www.w3.org/Graphics/SVG/1.1/DTD/svg11.dtd">
<!-- Creator: CorelDRAW 2023 -->
<svg xmlns="http://www.w3.org/2000/svg" xml:space="preserve" width="100%" height="100%" version="1.1" style="shape-rendering:geometricPrecision; text-rendering:geometricPrecision; image-rendering:optimizeQuality; fill-rule:evenodd; clip-rule:evenodd"
viewBox="0 0 36.5545 49.6277"
 xmlns:xlink="http://www.w3.org/1999/xlink"
 xmlns:xodm="http://www.corel.com/coreldraw/odm/2003">
 <defs>
  <style type="text/css">
   <![CDATA[
    .fil0 {fill:#2B2B2A;fill-rule:nonzero}
   ]]>
  </style>
 </defs>
 <g id="Capa_x0020_1">
  <metadata id="CorelCorpID_0Corel-Layer"/>
  <path class="fil0" d="M14.0931 46.042c0.0073,0.3043 0.2407,0.6247 0.4794,0.8832 3.3431,3.6236 10.0662,3.1349 13.9893,1.2615 3.0789,-1.4703 5.6593,-3.9461 6.8859,-7.0692 2.1062,-5.3629 1.0467,-12.3357 -1.8299,-17.0338 -3.8146,-6.2302 2.839,-8.6734 2.509,-9.8623 -0.945,-0.1669 -2.7587,1.5989 -3.7565,3.0068 -1.7286,2.4392 -1.0766,4.9538 0.1904,7.4678 0.748,1.4845 1.3791,3.2971 1.7977,4.8942 1.0156,3.8754 0.8703,8.119 -1.0028,11.7197 -2.1857,4.2016 -6.4181,6.1366 -10.9832,6.2423 -1.3898,0.032 -3.9075,-0.3739 -5.0718,-1.1849 -1.3414,-0.9343 -0.8019,-0.3109 -3.2075,-0.3253zm4.0374 -39.181c0.5049,0 0.9143,0.4093 0.9143,0.9144 0,0.5048 -0.4094,0.9141 -0.9143,0.9141 -0.5049,0 -0.9142,-0.4093 -0.9142,-0.9141 0,-0.5051 0.4093,-0.9144 0.9142,-0.9144zm-6.9114 0.0023c0.505,0 0.9142,0.4094 0.9142,0.9143 0,0.5048 -0.4092,0.9143 -0.9142,0.9143 -0.5049,0 -0.9143,-0.4095 -0.9143,-0.9143 0,-0.5049 0.4094,-0.9143 0.9143,-0.9143zm0.4547 10.0036c0.4795,-0.4904 0.7692,-0.8613 1.0787,-1.3343 -0.207,1.9667 -1.9009,3.6055 -3.7544,4.1989 -1.9949,0.6388 -3.8047,-0.0007 -4.8037,-0.4295 -0.039,0.0949 -0.4873,1.2693 -0.5266,1.3642 -2.8342,6.8193 -6.5501,13.5932 -0.0966,19.546 2.9589,2.7293 7.3557,4.3809 10.9014,4.4183 3.3997,0.0357 8.1109,-1.3963 11.2596,-4.2121 5.3927,-4.8224 3.6916,-15.9373 -0.3235,-20.4972 -2.0429,0.2388 -3.7155,0.3096 -5.5505,-0.8376 -1.3664,-0.854 -2.3875,-2.8667 -2.444,-3.588 0.648,0.8617 2.1979,2.3146 2.8737,2.6729 3.7297,1.9765 9.5416,0.2331 8.976,-3.4917 -0.3321,-2.1874 -4.0098,-3.5164 -6.2395,-4.3123 -0.9073,-0.3241 -1.3044,-0.2276 -1.5373,-1.1439 -0.5118,-2.0139 -3.1301,-9.1725 -6.7594,-9.2203 -3.7742,-0.0498 -5.9309,6.3645 -6.9321,9.4361 -0.3702,1.1358 -0.1779,0.7074 -1.4025,1.2753 -1.1915,0.5523 -4.1976,1.2714 -5.0579,3.0119 -1.7822,3.6073 5.666,7.9214 10.3386,3.1433z"/>
 </g>
</svg>
