<?xml version="1.0" encoding="utf-8"?>
<!-- Generator: Adobe Illustrator 28.0.0, SVG Export Plug-In . SVG Version: 6.00 Build 0)  -->
<svg version="1.1" id="Capa_1" xmlns:xodm="http://www.corel.com/coreldraw/odm/2003"
	 xmlns="http://www.w3.org/2000/svg" xmlns:xlink="http://www.w3.org/1999/xlink" x="0px" y="0px" viewBox="0 0 595.3 841.9"
	 style="enable-background:new 0 0 595.3 841.9;" xml:space="preserve">
<style type="text/css">
	.st0{fill:#FFFFFF;}
</style>
<g id="Capa_x0020_1">
	<path class="st0" d="M229.5,766.6c0.1,5,3.9,10.2,7.8,14.4c54.4,59,163.9,51.1,227.8,20.5c50.1-23.9,92.2-64.3,112.1-115.1
		c34.3-87.3,17-200.9-29.8-277.4c-62.1-101.5,46.2-141.2,40.9-160.6c-15.4-2.7-44.9,26-61.2,49c-28.1,39.7-17.5,80.7,3.1,121.6
		c12.2,24.2,22.5,53.7,29.3,79.7c16.5,63.1,14.2,132.2-16.3,190.9c-35.6,68.4-104.5,99.9-178.9,101.7c-22.6,0.5-63.6-6.1-82.6-19.3
		C259.9,756.7,268.7,766.9,229.5,766.6L229.5,766.6z M295.2,128.6c8.2,0,14.9,6.7,14.9,14.9c0,8.2-6.7,14.9-14.9,14.9
		s-14.9-6.7-14.9-14.9C280.4,135.3,287,128.6,295.2,128.6z M182.7,128.6c8.2,0,14.9,6.7,14.9,14.9c0,8.2-6.7,14.9-14.9,14.9
		c-8.2,0-14.9-6.7-14.9-14.9C167.8,135.3,174.5,128.6,182.7,128.6z M190.1,291.5c7.8-8,12.5-14,17.6-21.7c-3.4,32-31,58.7-61.1,68.4
		c-32.5,10.4-62,0-78.2-7c-0.6,1.5-7.9,20.7-8.6,22.2c-46.2,111-106.7,221.4-1.6,318.3c48.2,44.4,119.8,71.3,177.5,72
		c55.4,0.6,132.1-22.7,183.4-68.6c87.8-78.5,60.1-259.5-5.3-333.8c-33.3,3.9-60.5,5-90.4-13.6c-22.3-13.9-38.9-46.7-39.8-58.4
		c10.6,14,35.8,37.7,46.8,43.5c60.7,32.2,155.4,3.8,146.2-56.9c-5.4-35.6-65.3-57.3-101.6-70.2c-14.8-5.3-21.2-3.7-25-18.6
		c-8.3-32.8-51-149.4-110.1-150.1c-61.5-0.8-96.6,103.6-112.9,153.7c-6,18.5-2.9,11.5-22.8,20.8c-19.4,9-68.4,20.7-82.4,49
		C-7.3,299.1,114,369.3,190.1,291.5L190.1,291.5z"/>
</g>
</svg>
