<?xml version="1.0" encoding="UTF-8"?>
<!DOCTYPE svg PUBLIC "-//W3C//DTD SVG 1.1//EN" "http://www.w3.org/Graphics/SVG/1.1/DTD/svg11.dtd">
<!-- Creator: CorelDRAW 2023 -->
<svg xmlns="http://www.w3.org/2000/svg" xml:space="preserve" width="100%" height="100%" version="1.1" shape-rendering="geometricPrecision" text-rendering="geometricPrecision" image-rendering="optimizeQuality" fill-rule="evenodd" clip-rule="evenodd"
viewBox="0 0 68.6824 25"
 xmlns:xlink="http://www.w3.org/1999/xlink"
 xmlns:xodm="http://www.corel.com/coreldraw/odm/2003">
 <g id="Capa_x0020_1">
  <metadata id="CorelCorpID_0Corel-Layer"/>
  <path fill="white" fill-rule="nonzero" d="M62.6246 22.7116c0,0.9757 0.7947,1.8293 1.9075,1.8293l4.1502 0 0 -2.3868 -3.5145 0 0 -2.6656 3.338 0 0 -2.2301 -3.338 0 0 -2.0036 3.5145 0 0 -2.3868 -4.1502 0c-0.4946,0 -0.9362,0.1743 -1.3246,0.5227 -0.3887,0.3484 -0.5829,0.784 -0.5829,1.3066l0 8.0143zm-2.9848 -9.8436c-1.8897,0 -3.4085,0.5575 -4.5918,1.6899 -1.1834,1.1324 -1.7661,2.5437 -1.7661,4.2685 0,1.6029 0.5827,2.9618 1.7485,4.0593 1.1832,1.0977 2.6138,1.6552 4.3093,1.6552l0.4238 0c1.4836,0 1.8898,-0.7839 1.8898,-2.021l0 -5.2093 -2.5432 0 0 4.8435c-0.8832,0 -1.6602,-0.3136 -2.3313,-0.9234 -0.6535,-0.6272 -0.9891,-1.4286 -0.9891,-2.3869 0,-2.5959 2.0487,-3.589 3.7266,-3.589l0.9184 0 0 -2.3868 -0.7949 0zm-9.7313 7.1954l-1.9603 0 0.989 -3.6414 0.9713 3.6414zm3.9032 4.4775l-2.9142 -9.8958c-0.2648,-0.8538 -0.6003,-1.4113 -0.9712,-1.6377 -0.3709,-0.2613 -0.6182,-0.2962 -0.9891,-0.2962 -0.6181,0 -1.4305,0.1394 -1.978,1.9339l-2.9142 9.8958 2.6846 0 0.6181 -2.2474 3.1789 0 0.6005 2.2474 2.6846 0zm-9.9963 -2.3868l-3.4616 0 0 -9.2861 -2.5432 0 0 9.8262c0,1.0453 0.8655,1.8467 1.9251,1.8467l4.0797 0 0 -2.3868zm-6.623 0l-3.4615 0 0 -9.2861 -2.5432 0 0 9.8262c0,1.0453 0.8654,1.8467 1.9251,1.8467l4.0796 0 0 -2.3868zm-7.0644 -9.2861l-2.5431 0 0 11.6729 2.5431 0 0 -11.6729zm-9.5722 10.2443c0.3001,1.0628 0.9183,1.5854 1.8544,1.5854 0.9361,0 1.554,-0.5226 1.8543,-1.5854l2.9671 -10.2443 -2.6845 0 -2.1369 8.1187 -2.137 -8.1187 -2.1237 0c0.4957,1.0678 0.8317,2.2702 0.9662,3.4918 0.0705,0.6395 0.0861,1.2858 0.041,1.9227l1.3991 4.8298zm-5.0084 -20.3567l0 6.0063 0.0035 -0.0068 0.0036 -0.0068 0.0036 -0.0068 0.0109 -0.0203 0.0037 -0.0068 0.0036 -0.0068 0.0038 -0.0068 0.0037 -0.0066 0.0037 -0.0068 0.0038 -0.0068 0.0038 -0.0068 0.0038 -0.0068 0.0004 -0.0009 0.0034 -0.0058 0.0039 -0.0068 0.0037 -0.0068 0.0197 -0.0339 0.0039 -0.0068 0.004 -0.0067 0.0004 -0.0007 0.0036 -0.0061 0.0041 -0.0068 0.004 -0.0066 0.0246 -0.0405 0.0001 -0.0002 0.0041 -0.0067 0.0003 -0.0006 0.0039 -0.0062 0.0043 -0.0068 0.0041 -0.0067 0.0216 -0.0339 0.0043 -0.0066 0.0044 -0.0068 0.0002 -0.0004 0.0042 -0.0064 0.0044 -0.0067 0.036 -0.054 0.0001 -0.0002 0.0044 -0.0065 0.0422 -0.0607c0.2942,-0.4151 0.6691,-0.8327 1.056,-1.1643l0.0126 -0.0107 0.0053 -0.0045 0.0074 -0.0063 0.0106 -0.009 0.0021 -0.0019 0.013 -0.0108 0.0033 -0.0026 0.0097 -0.0082 0.0088 -0.0072 0.0044 -0.0037 0.0132 -0.0108 0.001 -0.0009 0.0122 -0.0099 0.0067 -0.0054 0.0068 -0.0054 0.0124 -0.0099 0.0011 -0.001 0.0137 -0.0108 0.0046 -0.0035 0.0092 -0.0073 0.0103 -0.0081 0.0034 -0.0026 0.014 -0.0109 0.0022 -0.0017 0.0117 -0.009 0.0082 -0.0061 0.0059 -0.0046 0.0141 -0.0107 0.0002 0 0.0142 -0.0106 0.0059 -0.0044 0.0085 -0.0061 0.0119 -0.0089 0.0025 -0.0017 0.0145 -0.0106 0.0037 -0.0025 0.0109 -0.0078 0.0099 -0.007 0.0049 -0.0035 0.0147 -0.0103 0.0013 -0.0008 0.0137 -0.0094 0.0073 -0.005 0.0076 -0.0052 0.0137 -0.0092 0.0012 -0.0009 0.0152 -0.0101 0.005 -0.0032 0.0102 -0.0067 0.0113 -0.0073 0.0039 -0.0025 0.0154 -0.0099 0.0024 -0.0015 0.013 -0.008 0.0089 -0.0056 0.0065 -0.004 0.0154 -0.0094 0.0001 -0.0002 0.0157 -0.0093 0.0064 -0.0038 0.0092 -0.0054 0.0131 -0.0075 0.0026 -0.0017 0.0159 -0.0089 0.0038 -0.0023 0.012 -0.0067 0.0105 -0.0057 0.0054 -0.0031 0.016 -0.0085 0.0013 -0.0007 0.0226 -0.0119 0.0082 -0.0043 0.0148 -0.0074 0.0013 -0.0008 0.0163 -0.0081 0.0053 -0.0026 0.0109 -0.0053 0.0123 -0.0058 0.0041 -0.002 0.0164 -0.0076 0.0026 -0.0012 0.0138 -0.0062 0.0095 -0.0043 0.0069 -0.003 0.0164 -0.007 0.0001 -0.0002 0.0167 -0.0069 0.0068 -0.0028 0.0098 -0.0039 0.0137 -0.0054 0.0029 -0.0011 0.0166 -0.0064 0.0042 -0.0016 0.0126 -0.0046 0.0111 -0.004 0.0056 -0.0021 0.0169 -0.0057 0.0013 -0.0004 0.0156 -0.0052 0.0083 -0.0026 0.0086 -0.0028 0.0153 -0.0047 0.0015 -0.0005 0.017 -0.0049 0.0056 -0.0016 0.0114 -0.0032 0.0126 -0.0034 0.0044 -0.0011 0 -3.8373 2.0868 0 0 -2.3572 -6.4694 0 0 2.3572 2.0871 0zm1.9691 9.171l0.3264 0 0 -3.377 -0.003 0.003 -0.0044 0.0044 -0.0075 0.0074 -0.0013 0.0014 -0.0062 0.0062 -0.007 0.0071 -0.0004 0.0003 -0.0074 0.0075 -0.0053 0.0054 -0.0022 0.0021 -0.0074 0.0076 -0.0035 0.0035 -0.0039 0.0039 -0.0075 0.0076 -0.0017 0.0018 -0.0057 0.0057 -0.0073 0.0076 -0.0001 0 -0.0073 0.0075 -0.0057 0.0059 -0.0016 0.0017 -0.0073 0.0075 -0.0041 0.0042 -0.0032 0.0035 -0.0073 0.0076 -0.0023 0.0024 -0.005 0.0053 -0.0073 0.0076 -0.0005 0.0005 -0.0068 0.0071 -0.0145 0.0154 -0.0044 0.0046 -0.0028 0.0032 -0.0073 0.0077 -0.0027 0.0029 -0.0045 0.0047 -0.0072 0.0078 -0.001 0.0011 -0.0061 0.0066 -0.0065 0.0071 -0.0007 0.0007 -0.0071 0.0078 -0.0048 0.0053 -0.0024 0.0026 -0.007 0.0078 -0.0032 0.0035 -0.0039 0.0044 -0.0071 0.0078 -0.0014 0.0016 -0.0057 0.0063 -0.0068 0.0077 -0.0002 0.0003 -0.007 0.0078 -0.0051 0.0059 -0.0019 0.002 -0.007 0.0081 -0.0035 0.0039 -0.0035 0.004 -0.0069 0.0081 -0.0018 0.0021 -0.0052 0.0058 -0.0069 0.0081 -0.0002 0.0002 -0.0066 0.0078 -0.0055 0.0066 -0.0014 0.0015 -0.0068 0.0082 -0.0039 0.0045 -0.003 0.0035 -0.0068 0.0082 -0.0023 0.0028 -0.0045 0.0054 -0.0067 0.0082 -0.0008 0.0007 -0.006 0.0075 -0.0058 0.0071 -0.001 0.0012 -0.0067 0.0082 -0.0043 0.0053 -0.0024 0.003 -0.0066 0.0083 -0.0027 0.0033 -0.004 0.005 -0.0066 0.0083 -0.0011 0.0015 -0.0055 0.007 -0.0062 0.0078 -0.0004 0.0006 -0.0065 0.0084 -0.0047 0.0059 -0.0019 0.0026 -0.0065 0.0084 -0.0031 0.004 -0.0034 0.0046 -0.0065 0.0085 -0.0015 0.002 -0.0049 0.0066 -0.0064 0.0086c-0.6868,0.9222 -0.5211,1.8156 0.057,2.7597l0.0661 0.11zm7.8712 0l2.5364 0 -2.7932 -5.2136 0.2086 -0.086c0.5137,-0.2409 1.7979,-0.9635 1.7979,-2.8217 0,-1.2734 -0.8827,-3.4241 -3.4995,-3.4069l-1.4608 0c-0.9632,0 -1.7658,0.7743 -1.7658,1.8239l0 9.7043 2.3116 0 0 -5.1963c0.0321,0.2237 0.0963,0.3957 0.1925,0.5506l2.4723 4.6457zm-2.0388 -9.3258c0.8508,0 1.5251,0.3785 1.5251,1.256 0,0.7744 -0.4014,1.1357 -1.2201,1.2905 -0.5137,0.086 -0.8187,0.3958 -0.931,0.9291l0 -3.4756 0.626 0zm13.6128 9.3258l-2.6487 -9.7732c-0.2408,-0.8431 -0.5457,-1.3936 -0.8828,-1.6173 -0.3372,-0.2582 -0.562,-0.2926 -0.899,-0.2926 -0.5619,0 -1.3003,0.1377 -1.798,1.9099l-2.6487 9.7732 2.4401 0 0.5618 -2.2197 2.8895 0 0.5459 2.2197 2.4399 0zm-3.5476 -4.422l-1.7819 0 0.899 -3.5962 0.8829 3.5962zm6.1804 -7.1062l-2.3115 0 0 11.5282 2.3115 0 0 -11.5282zm3.8207 0.7743c-0.2729,-0.6195 -0.7386,-0.9292 -1.3966,-0.9292 -0.8831,0 -1.4609,0.5334 -1.4609,1.6862l0 9.9969 2.1671 0 0 -7.2094 2.8414 6.4007c0.2889,0.6367 0.7064,0.9636 1.2682,0.9636 0.8829,0 1.4609,-0.5335 1.4609,-1.6863l0 -9.9968 -2.1672 0 0 6.8309 -2.7129 -6.0566zm8.1548 -0.7743l-2.3117 0 0 11.5282 2.3117 0 0 -11.5282zm3.8206 0.7743c-0.2728,-0.6195 -0.7384,-0.9292 -1.3965,-0.9292 -0.8831,0 -1.4609,0.5334 -1.4609,1.6862l0 9.9969 2.167 0 0 -7.2094 2.8415 6.4007c0.2889,0.6367 0.7064,0.9636 1.2682,0.9636 0.8829,0 1.4609,-0.5335 1.4609,-1.6863l0 -9.9968 -2.1672 0 0 6.8309 -2.713 -6.0566zm11.4617 -0.7743c-1.7176,0 -3.0981,0.5506 -4.1736,1.669 -1.0757,1.1184 -1.6054,2.5121 -1.6054,4.2156 0,1.5829 0.5297,2.925 1.5891,4.009 1.0755,1.084 2.3758,1.6346 3.917,1.6346l0.3853 0c1.3484,0 1.7176,-0.7743 1.7176,-1.996l0 -5.1446 -2.3115 0 0 4.7833c-0.8026,0 -1.5091,-0.3097 -2.1191,-0.9119 -0.5939,-0.6194 -0.8989,-1.4109 -0.8989,-2.3573 0,-2.5637 1.8622,-3.5445 3.3872,-3.5445l0.8347 0 0 -2.3572 -0.7224 0zm-59.7529 22.7953c0.0036,0.1534 0.1211,0.3147 0.2414,0.4449 1.6842,1.8255 5.0709,1.5792 7.0471,0.6355 1.551,-0.7407 2.8509,-1.9878 3.4688,-3.5611 1.061,-2.7015 0.5273,-6.214 -0.9219,-8.5808 -1.9215,-3.1384 1.4302,-4.3691 1.2639,-4.968 -0.476,-0.0842 -1.3896,0.8054 -1.8923,1.5146 -0.8707,1.2288 -0.5423,2.4954 0.096,3.7619 0.3768,0.7478 0.6946,1.6609 0.9056,2.4654 0.5115,1.9523 0.4384,4.09 -0.5052,5.9038 -1.101,2.1165 -3.2331,3.0913 -5.5328,3.1445 -0.7,0.0162 -1.9684,-0.1882 -2.5548,-0.5968 -0.6758,-0.4707 -0.404,-0.1566 -1.6158,-0.1639zm2.0337 -19.7374c0.2544,0 0.4606,0.2063 0.4606,0.4607 0,0.2543 -0.2062,0.4604 -0.4606,0.4604 -0.2542,0 -0.4605,-0.2061 -0.4605,-0.4604 0,-0.2544 0.2063,-0.4607 0.4605,-0.4607zm-3.4815 0.0013c0.2544,0 0.4604,0.2061 0.4604,0.4605 0,0.2543 -0.206,0.4606 -0.4604,0.4606 -0.2544,0 -0.4607,-0.2063 -0.4607,-0.4606 0,-0.2544 0.2063,-0.4605 0.4607,-0.4605zm0.229 5.0392c0.2415,-0.2471 0.3875,-0.4338 0.5434,-0.6721 -0.1043,0.9907 -0.9575,1.8163 -1.8912,2.1151 -1.005,0.3219 -1.9166,-0.0003 -2.4199,-0.2164 -0.0196,0.0479 -0.2454,0.6395 -0.2653,0.6873 -1.4277,3.4352 -3.2996,6.8476 -0.0487,9.8462 1.4906,1.3749 3.7055,2.207 5.4917,2.2257 1.7124,0.018 4.0857,-0.7033 5.6719,-2.1218 2.7166,-2.4293 1.8596,-8.0283 -0.163,-10.3254 -1.0291,0.1203 -1.8716,0.156 -2.796,-0.4219 -0.6884,-0.4302 -1.2027,-1.4441 -1.2312,-1.8074 0.3265,0.4341 1.1073,1.1659 1.4477,1.3463 1.8788,0.9957 4.8065,0.1175 4.5216,-1.7588 -0.1673,-1.1019 -2.0199,-1.7714 -3.1431,-2.1724 -0.457,-0.1632 -0.6572,-0.1146 -0.7744,-0.5762 -0.2579,-1.0145 -1.5769,-4.6206 -3.4051,-4.6446 -1.9013,-0.0252 -2.9877,3.2061 -3.492,4.7533 -0.1865,0.5721 -0.0896,0.3564 -0.7065,0.6424 -0.6002,0.2782 -2.1146,0.6405 -2.5479,1.5173 -0.8978,1.8172 2.8542,3.9903 5.208,1.5834z"/>
 </g>
</svg>
